<?xml version="1.0" encoding="UTF-8"?>
<svg id="logosandtypes_com" data-name="logosandtypes com" xmlns="http://www.w3.org/2000/svg" viewBox="0 0 150 150">
  <defs>
    <style>
      .cls-1 {
        fill: #151515;
      }

      .cls-2 {
        fill: none;
      }
    </style>
  </defs>
  <path class="cls-2" d="M0,0H150V150H0V0Z"/>
  <path class="cls-1" d="M94.18,20.47c0-3.18-2.58-5.76-5.76-5.76H23.21c-3.18,0-5.76,2.58-5.76,5.76v26.86c0,3.18,2.58,5.76,5.76,5.76H88.43c3.18,0,5.76,2.58,5.76,5.76v7.67c0,3.18-2.58,5.76-5.76,5.76H46.23c-3.18,0-5.76,2.58-5.76,5.76v26.85c0,3.18,2.58,5.76,5.76,5.76h42.2c3.18,0,5.76,2.58,5.76,5.76v15.35c0,3.18,2.58,5.75,5.75,5.76h26.86c3.18,0,5.76-2.58,5.76-5.76v-26.86c0-3.18-2.58-5.76-5.76-5.76h-26.86c-3.18,0-5.76-2.58-5.76-5.76v-7.67c0-3.18,2.58-5.76,5.76-5.76h26.86c3.18,0,5.76-2.58,5.76-5.76v-26.85c0-3.18-2.58-5.76-5.76-5.76h-26.86c-3.18,0-5.76-2.58-5.76-5.76v-15.35Z"/>
</svg>